HIERARCHY
ROOT Hips
{
  OFFSET 0.000000 0.000000 0.000000
  CHANNELS 6 Xposition Yposition Zposition Zrotation Yrotation Xrotation
  JOINT Spine1
  {
    OFFSET -0.013727 5.003763 -0.053727
    CHANNELS 3 Zrotation Yrotation Xrotation
    JOINT Spine2
    {
      OFFSET -0.000000 7.125301 -0.029825
      CHANNELS 3 Zrotation Yrotation Xrotation
      JOINT Chest
      {
        OFFSET -0.000001 7.550063 -0.815971
        CHANNELS 3 Zrotation Yrotation Xrotation
        JOINT Neck1
        {
          OFFSET -0.181677 26.311295 -0.553348
          CHANNELS 3 Zrotation Yrotation Xrotation
          JOINT Neck2
          {
            OFFSET -0.000003 7.709397 2.302585
            CHANNELS 3 Zrotation Yrotation Xrotation
            JOINT Head
            {
              OFFSET -0.000005 6.128916 1.953709
              CHANNELS 3 Zrotation Yrotation Xrotation
              JOINT HeadEnd
              {
                OFFSET 0.003598 16.065403 -1.835379
                CHANNELS 3 Zrotation Yrotation Xrotation
                End Site
                {
                  OFFSET 0.0 1.0 0.0
                }
              }
              JOINT Jaw
              {
                OFFSET 0.002637 0.475592 3.094941
                CHANNELS 3 Zrotation Yrotation Xrotation
                End Site
                {
                  OFFSET 0.0 1.0 0.0
                }
              }
              JOINT LeftEye
              {
                OFFSET 3.206381 5.380205 7.586883
                CHANNELS 3 Zrotation Yrotation Xrotation
                End Site
                {
                  OFFSET 0.0 1.0 0.0
                }
              }
              JOINT RightEye
              {
                OFFSET -3.222440 5.361869 7.558234
                CHANNELS 3 Zrotation Yrotation Xrotation
                End Site
                {
                  OFFSET 0.0 1.0 0.0
                }
              }
            }
          }
        }
        JOINT LeftShoulder
        {
          OFFSET 1.621652 23.237164 5.113413
          CHANNELS 3 Zrotation Yrotation Xrotation
          JOINT LeftArm
          {
            OFFSET 14.919846 0.000002 -5.502326
            CHANNELS 3 Zrotation Yrotation Xrotation
            JOINT LeftForeArm
            {
              OFFSET 28.739307 0.000000 -0.002588
              CHANNELS 3 Zrotation Yrotation Xrotation
              JOINT LeftHand
              {
                OFFSET 27.093981 -0.000001 0.002609
                CHANNELS 3 Zrotation Yrotation Xrotation
                JOINT LeftHandThumb1
                {
                  OFFSET 2.276482 -1.392045 3.191413
                  CHANNELS 3 Zrotation Yrotation Xrotation
                  JOINT LeftHandThumb2
                  {
                    OFFSET 4.012836 -1.828127 1.641654
                    CHANNELS 3 Zrotation Yrotation Xrotation
                    JOINT LeftHandThumb3
                    {
                      OFFSET 2.798515 0.000000 -0.000003
                      CHANNELS 3 Zrotation Yrotation Xrotation
                      JOINT LeftHandThumbEnd
                      {
                        OFFSET 3.180793 -0.000004 0.000004
                        CHANNELS 3 Zrotation Yrotation Xrotation
                        End Site
                        {
                          OFFSET 0.0 1.0 0.0
                        }
                      }
                    }
                  }
                }
                JOINT LeftHandIndex1
                {
                  OFFSET 3.247555 -0.531998 2.296169
                  CHANNELS 3 Zrotation Yrotation Xrotation
                  JOINT LeftHandIndex2
                  {
                    OFFSET 6.364578 0.012060 0.178600
                    CHANNELS 3 Zrotation Yrotation Xrotation
                    JOINT LeftHandIndex3
                    {
                      OFFSET 3.662364 0.000000 0.000000
                      CHANNELS 3 Zrotation Yrotation Xrotation
                      JOINT LeftHandIndex4
                      {
                        OFFSET 2.329242 0.000004 0.000004
                        CHANNELS 3 Zrotation Yrotation Xrotation
                        JOINT LeftHandIndexEnd
                        {
                          OFFSET 2.759615 -0.180537 -0.113024
                          CHANNELS 3 Zrotation Yrotation Xrotation
                          End Site
                          {
                            OFFSET 0.0 1.0 0.0
                          }
                        }
                      }
                    }
                  }
                }
                JOINT LeftHandMiddle1
                {
                  OFFSET 3.163495 0.240981 1.000332
                  CHANNELS 3 Zrotation Yrotation Xrotation
                  JOINT LeftHandMiddle2
                  {
                    OFFSET 6.190780 -0.259278 -1.002548
                    CHANNELS 3 Zrotation Yrotation Xrotation
                    JOINT LeftHandMiddle3
                    {
                      OFFSET 4.356520 -0.000004 -0.000001
                      CHANNELS 3 Zrotation Yrotation Xrotation
                      JOINT LeftHandMiddle4
                      {
                        OFFSET 2.996877 -0.000008 0.000000
                        CHANNELS 3 Zrotation Yrotation Xrotation
                        JOINT LeftHandMiddleEnd
                        {
                          OFFSET 2.304287 -0.294569 -0.031741
                          CHANNELS 3 Zrotation Yrotation Xrotation
                          End Site
                          {
                            OFFSET 0.0 1.0 0.0
                          }
                        }
                      }
                    }
                  }
                }
                JOINT LeftHandRing1
                {
                  OFFSET 2.882643 -0.053652 -0.322543
                  CHANNELS 3 Zrotation Yrotation Xrotation
                  JOINT LeftHandRing2
                  {
                    OFFSET 5.854541 -0.486202 -1.373841
                    CHANNELS 3 Zrotation Yrotation Xrotation
                    JOINT LeftHandRing3
                    {
                      OFFSET 4.350578 0.000000 0.000003
                      CHANNELS 3 Zrotation Yrotation Xrotation
                      JOINT LeftHandRing4
                      {
                        OFFSET 2.651321 0.000007 0.000002
                        CHANNELS 3 Zrotation Yrotation Xrotation
                        JOINT LeftHandRingEnd
                        {
                          OFFSET 1.936105 0.077687 -0.000071
                          CHANNELS 3 Zrotation Yrotation Xrotation
                          End Site
                          {
                            OFFSET 0.0 1.0 0.0
                          }
                        }
                      }
                    }
                  }
                }
                JOINT LeftHandPinky1
                {
                  OFFSET 2.865500 -0.310005 -1.600378
                  CHANNELS 3 Zrotation Yrotation Xrotation
                  JOINT LeftHandPinky2
                  {
                    OFFSET 5.087849 -1.331141 -1.771230
                    CHANNELS 3 Zrotation Yrotation Xrotation
                    JOINT LeftHandPinky3
                    {
                      OFFSET 3.070974 0.000004 0.000000
                      CHANNELS 3 Zrotation Yrotation Xrotation
                      JOINT LeftHandPinky4
                      {
                        OFFSET 1.549672 0.000000 0.000001
                        CHANNELS 3 Zrotation Yrotation Xrotation
                        JOINT LeftHandPinkyEnd
                        {
                          OFFSET 1.944893 -0.157802 0.057219
                          CHANNELS 3 Zrotation Yrotation Xrotation
                          End Site
                          {
                            OFFSET 0.0 1.0 0.0
                          }
                        }
                      }
                    }
                  }
                }
              }
            }
          }
        }
        JOINT RightShoulder
        {
          OFFSET -1.380118 23.180309 5.214158
          CHANNELS 3 Zrotation Yrotation Xrotation
          JOINT RightArm
          {
            OFFSET -15.037196 0.000012 -5.545604
            CHANNELS 3 Zrotation Yrotation Xrotation
            JOINT RightForeArm
            {
              OFFSET -28.736639 0.000002 -0.002597
              CHANNELS 3 Zrotation Yrotation Xrotation
              JOINT RightHand
              {
                OFFSET -27.133619 -0.000000 0.002613
                CHANNELS 3 Zrotation Yrotation Xrotation
                JOINT RightHandThumb1
                {
                  OFFSET -2.274032 -1.383988 3.163127
                  CHANNELS 3 Zrotation Yrotation Xrotation
                  JOINT RightHandThumb2
                  {
                    OFFSET -4.011429 -1.827466 1.640914
                    CHANNELS 3 Zrotation Yrotation Xrotation
                    JOINT RightHandThumb3
                    {
                      OFFSET -2.794935 -0.000004 -0.000003
                      CHANNELS 3 Zrotation Yrotation Xrotation
                      JOINT RightHandThumbEnd
                      {
                        OFFSET -3.183852 0.000004 0.000001
                        CHANNELS 3 Zrotation Yrotation Xrotation
                        End Site
                        {
                          OFFSET 0.0 1.0 0.0
                        }
                      }
                    }
                  }
                }
                JOINT RightHandIndex1
                {
                  OFFSET -3.253266 -0.520057 2.282866
                  CHANNELS 3 Zrotation Yrotation Xrotation
                  JOINT RightHandIndex2
                  {
                    OFFSET -6.341917 0.012471 0.178266
                    CHANNELS 3 Zrotation Yrotation Xrotation
                    JOINT RightHandIndex3
                    {
                      OFFSET -3.654871 -0.000008 -0.000000
                      CHANNELS 3 Zrotation Yrotation Xrotation
                      JOINT RightHandIndex4
                      {
                        OFFSET -2.327586 0.000000 0.000001
                        CHANNELS 3 Zrotation Yrotation Xrotation
                        JOINT RightHandIndexEnd
                        {
                          OFFSET -2.761790 -0.180656 -0.113078
                          CHANNELS 3 Zrotation Yrotation Xrotation
                          End Site
                          {
                            OFFSET 0.0 1.0 0.0
                          }
                        }
                      }
                    }
                  }
                }
                JOINT RightHandMiddle1
                {
                  OFFSET -3.168106 0.246593 1.001030
                  CHANNELS 3 Zrotation Yrotation Xrotation
                  JOINT RightHandMiddle2
                  {
                    OFFSET -6.180828 -0.258836 -1.000895
                    CHANNELS 3 Zrotation Yrotation Xrotation
                    JOINT RightHandMiddle3
                    {
                      OFFSET -4.348901 0.000000 -0.000000
                      CHANNELS 3 Zrotation Yrotation Xrotation
                      JOINT RightHandMiddle4
                      {
                        OFFSET -3.000240 -0.000004 -0.000002
                        CHANNELS 3 Zrotation Yrotation Xrotation
                        JOINT RightHandMiddleEnd
                        {
                          OFFSET -2.302520 -0.294370 -0.031706
                          CHANNELS 3 Zrotation Yrotation Xrotation
                          End Site
                          {
                            OFFSET 0.0 1.0 0.0
                          }
                        }
                      }
                    }
                  }
                }
                JOINT RightHandRing1
                {
                  OFFSET -2.885690 -0.067952 -0.308858
                  CHANNELS 3 Zrotation Yrotation Xrotation
                  JOINT RightHandRing2
                  {
                    OFFSET -5.854198 -0.486130 -1.373731
                    CHANNELS 3 Zrotation Yrotation Xrotation
                    JOINT RightHandRing3
                    {
                      OFFSET -4.338810 -0.000004 -0.000000
                      CHANNELS 3 Zrotation Yrotation Xrotation
                      JOINT RightHandRing4
                      {
                        OFFSET -2.654903 -0.000004 0.000004
                        CHANNELS 3 Zrotation Yrotation Xrotation
                        JOINT RightHandRingEnd
                        {
                          OFFSET -1.933568 0.077527 -0.000052
                          CHANNELS 3 Zrotation Yrotation Xrotation
                          End Site
                          {
                            OFFSET 0.0 1.0 0.0
                          }
                        }
                      }
                    }
                  }
                }
                JOINT RightHandPinky1
                {
                  OFFSET -2.866425 -0.342796 -1.584145
                  CHANNELS 3 Zrotation Yrotation Xrotation
                  JOINT RightHandPinky2
                  {
                    OFFSET -5.091371 -1.332055 -1.772385
                    CHANNELS 3 Zrotation Yrotation Xrotation
                    JOINT RightHandPinky3
                    {
                      OFFSET -3.062664 -0.000004 0.000001
                      CHANNELS 3 Zrotation Yrotation Xrotation
                      JOINT RightHandPinky4
                      {
                        OFFSET -1.546529 0.000004 -0.000002
                        CHANNELS 3 Zrotation Yrotation Xrotation
                        JOINT RightHandPinkyEnd
                        {
                          OFFSET -1.945119 -0.157718 0.057211
                          CHANNELS 3 Zrotation Yrotation Xrotation
                          End Site
                          {
                            OFFSET 0.0 1.0 0.0
                          }
                        }
                      }
                    }
                  }
                }
              }
            }
          }
        }
      }
    }
  }
  JOINT LeftLeg
  {
    OFFSET 10.043214 -8.434526 2.595655
    CHANNELS 3 Zrotation Yrotation Xrotation
    JOINT LeftShin
    {
      OFFSET -0.000001 -43.221752 -0.802913
      CHANNELS 3 Zrotation Yrotation Xrotation
      JOINT LeftFoot
      {
        OFFSET 0.000001 -42.155094 -3.481523
        CHANNELS 3 Zrotation Yrotation Xrotation
        JOINT LeftToeBase
        {
          OFFSET 0.000000 -5.059472 13.231529
          CHANNELS 3 Zrotation Yrotation Xrotation
          JOINT LeftToeEnd
          {
            OFFSET -0.009607 -1.647619 6.513017
            CHANNELS 3 Zrotation Yrotation Xrotation
            End Site
            {
              OFFSET 0.0 1.0 0.0
            }
          }
        }
      }
    }
  }
  JOINT RightLeg
  {
    OFFSET -10.047278 -8.295260 2.620317
    CHANNELS 3 Zrotation Yrotation Xrotation
    JOINT RightShin
    {
      OFFSET 0.000001 -43.362206 -0.805556
      CHANNELS 3 Zrotation Yrotation Xrotation
      JOINT RightFoot
      {
        OFFSET 0.000002 -42.117393 -3.478398
        CHANNELS 3 Zrotation Yrotation Xrotation
        JOINT RightToeBase
        {
          OFFSET -0.000000 -5.079609 13.284196
          CHANNELS 3 Zrotation Yrotation Xrotation
          JOINT RightToeEnd
          {
            OFFSET 0.009532 -1.634378 6.460591
            CHANNELS 3 Zrotation Yrotation Xrotation
            End Site
            {
              OFFSET 0.0 1.0 0.0
            }
          }
        }
      }
    }
  }
}
MOTION
Frames: 4
Frame Time: 0.033333
27.732586 108.667503 26.383644 19.685289 59.400799 15.484087 1.231377 0.622090 4.946050 2.759174 5.028623 -5.644798 -6.437290 7.305329 4.933898 -0.418744 4.317067 2.830664 -19.607457 5.819553 0.159631 -2.141525 49.583056 -15.090822 -0.000299 -0.000066 -0.000683 -1.885034 -0.453508 -1.571480 0.026146 -4.319586 -2.482981 -0.445276 -2.572269 -2.483453 -5.839175 -3.138279 15.290410 -74.085483 -50.607901 4.073044 -172.454163 -49.502661 177.788572 33.745597 -4.355864 -26.939097 -8.851334 7.369328 16.592501 -6.093653 -5.779287 -4.542834 -0.621980 4.254581 -5.569333 -0.000534 -0.001627 -0.000656 -0.954848 -1.352421 0.357753 -41.144641 7.640709 8.588725 -24.196262 -1.856857 1.210048 -6.274074 -2.212142 0.634344 -0.001512 -0.000157 0.000285 -0.473934 -2.221875 2.197283 -42.296918 10.753893 1.917767 -25.619484 -3.283682 2.784463 -4.153210 -1.429484 -0.569280 0.000700 -0.000534 -0.000787 2.529603 -1.284061 -15.026203 -35.973891 18.668024 14.994067 -30.808355 0.454068 0.126497 -26.836386 -0.563371 -6.650231 -0.000778 -0.001129 -0.000151 2.196207 0.692350 -10.794211 -35.447042 12.978619 11.593796 -31.197530 -1.535905 1.733245 -18.517711 1.246041 -7.885374 -0.000603 -0.000535 0.000019 -20.192643 16.738630 20.992489 80.052161 41.189600 24.083457 166.583253 58.386720 162.893056 -21.295294 31.202869 -0.392156 21.654075 -24.663161 24.910781 0.756170 1.920219 -9.999016 -2.467612 -5.746909 2.506144 -0.000972 0.001376 -0.000052 3.587764 -4.737503 4.649995 46.646213 -12.716926 9.396167 30.137219 3.845160 4.197556 7.705178 3.118795 -5.186004 -0.000713 0.000135 0.000547 -0.555616 -3.058311 8.496334 50.833837 -9.408366 6.858764 37.111167 6.020295 5.274896 7.297007 3.299095 -3.230925 0.000659 -0.000168 -0.000543 -7.021387 -3.014926 -6.807616 51.965378 -17.540038 16.545646 43.373930 4.167779 2.700498 30.998429 3.357841 -11.642086 0.002082 -0.001798 -0.001737 -9.859503 -5.053072 -0.716511 52.727939 -9.663511 14.239110 44.310706 10.331854 5.378979 25.808760 3.492682 -14.468850 -0.002620 0.000540 -0.000861 -10.113058 -3.879257 -11.205936 -0.463916 -0.421874 18.359086 1.863854 1.847208 -2.355629 -0.358321 -1.635923 4.025154 0.001402 -0.000346 1.000624 -7.544381 -16.218382 8.614186 -1.965106 -2.407597 44.089923 5.880378 -8.013526 13.860434 1.234819 1.524575 -6.434716 -0.002704 -0.000859 1.002653
31.123484 109.294907 28.318340 20.960862 66.891569 16.452385 1.478199 1.111704 5.003950 2.880955 4.622551 -5.074538 -6.479919 6.781109 4.803379 -0.012941 4.098938 3.306472 -19.618425 6.450613 -1.325139 -3.570162 51.655017 -17.321290 0.000006 -0.000126 -0.000661 -1.728818 -0.508833 -1.883343 0.008088 -4.213441 -1.856881 -0.443438 -2.473703 -1.846364 -6.130304 -2.879209 13.992828 -71.813201 -55.726903 1.332861 -175.035853 -49.451754 -178.551563 30.695808 -4.655583 -21.992074 -8.544583 7.983134 16.704957 -6.663050 -5.424505 -3.922893 -0.268458 6.240391 -4.958855 -0.000738 -0.001168 -0.000422 -1.773511 -1.444303 0.974057 -39.052351 8.498455 8.335445 -21.390676 1.207460 0.446005 -5.189870 -2.510966 3.960130 -0.001364 -0.000083 -0.000003 -0.952705 -2.319224 2.967507 -39.360751 11.291599 1.696968 -22.670915 -0.186859 1.825952 -2.440090 -1.430384 1.965596 0.000990 -0.000777 -0.000203 2.678883 -1.218683 -14.946844 -33.087243 17.915381 15.344191 -27.761124 2.223145 -0.053002 -24.282117 0.019807 -6.047933 -0.000362 -0.000955 -0.000415 2.677288 0.735862 -9.846798 -33.116414 12.318006 11.822160 -28.930268 -0.367059 1.422964 -15.158353 2.404083 -7.856198 -0.000707 -0.000037 -0.000025 -22.165642 15.601387 20.352931 81.202042 47.616189 19.523783 168.675135 54.320817 165.480550 -30.818144 39.719852 -10.406101 21.870924 -24.421987 24.481691 -0.315813 0.505216 -9.968145 -2.621808 -8.293336 2.834019 -0.000648 0.001125 -0.000152 3.069048 -5.269946 4.220969 48.482548 -13.120003 9.576450 29.727728 2.623447 4.648467 7.793058 3.481814 -1.983566 -0.000590 0.000060 0.000439 -0.913628 -3.768884 8.892608 52.664493 -7.820714 7.183346 36.714136 4.523851 4.521163 6.516753 3.204001 -0.952506 0.000751 0.000014 -0.000732 -7.115148 -3.179897 -6.514761 53.863050 -16.616276 16.069912 42.611431 2.610935 1.987121 29.702132 2.151396 -9.830417 0.001702 -0.000952 -0.001404 -9.260772 -4.968646 -0.647994 54.073558 -8.346772 13.846396 44.400917 8.098219 3.975386 23.965462 1.912315 -12.736090 -0.003252 0.001112 -0.000932 -9.547491 -4.694731 -6.848460 1.391296 -1.206976 16.917271 1.801817 -0.273620 -3.378360 0.245801 -1.524318 3.313457 0.001206 -0.000643 1.000653 -8.310784 -16.948791 2.452835 -1.326412 -1.898547 52.072958 4.260349 -10.666123 8.743351 2.131564 1.541551 -5.543038 -0.002235 -0.000353 1.001983
34.645130 109.755722 30.231041 26.017345 72.109286 21.917287 1.959243 0.530919 4.933083 2.559072 3.888835 -5.169341 -6.247143 6.263368 5.220025 0.545752 4.224960 3.532896 -20.341982 6.554731 -1.026698 -5.799009 53.695354 -18.865098 0.000211 -0.000066 -0.000859 -1.890886 -0.550415 -1.932051 0.014353 -4.725133 -2.489105 -0.455669 -2.989550 -2.477251 -5.204508 -2.841693 13.567137 -74.589080 -57.411715 1.854066 -175.426397 -48.327802 -176.501639 35.068550 -3.337086 -26.706407 -8.618171 8.577890 16.816480 -6.068010 -5.213942 -4.095845 -0.056175 6.456299 -5.077719 -0.000644 -0.000964 -0.000285 -0.924117 -0.444895 1.154443 -42.578930 8.549068 7.900597 -23.175426 0.712519 0.804419 -5.381425 -2.599749 3.614514 -0.001202 0.000028 -0.000041 -0.348921 -1.720833 3.102501 -42.655529 11.076553 1.659958 -24.169405 -0.649821 2.066632 -2.507951 -1.511323 1.667257 0.001093 -0.000660 -0.000013 3.163078 -0.720221 -15.265890 -36.101894 18.338266 14.542387 -29.383687 2.105483 -0.014164 -24.457335 -0.001453 -6.130458 -0.000301 -0.000690 -0.000617 2.830793 1.089193 -10.249924 -35.585197 12.466482 11.044563 -30.547432 -0.689182 1.592420 -15.427084 2.412114 -8.143107 -0.000906 0.000361 -0.000057 -23.332137 13.907461 20.035517 87.490421 45.702673 21.788870 166.600055 55.072353 164.579875 -37.342776 37.837512 -14.961084 22.458716 -25.414804 24.094364 -0.440375 -0.177342 -10.241758 -2.531674 -8.922010 2.821701 -0.000489 0.001229 -0.000151 2.988472 -7.111337 3.899017 51.953272 -14.397351 8.992588 30.488010 2.357226 4.994804 7.494731 3.732745 -1.756406 -0.000202 -0.000247 0.000392 -0.743507 -5.423764 9.382251 55.835144 -8.112022 6.984335 37.472475 4.590609 4.560660 6.440133 3.394944 -0.551452 0.001056 -0.000111 -0.000647 -6.573809 -4.446203 -5.719797 56.867269 -17.243163 15.176877 43.639299 2.475668 1.819082 29.679590 2.130639 -9.420103 0.001852 -0.001351 -0.001324 -8.156479 -6.128002 0.113837 56.719861 -8.011047 13.405868 45.757121 8.190632 3.924113 24.167012 1.983983 -12.471445 -0.002725 0.000588 -0.001000 -9.472921 -5.796766 -2.972233 1.523604 -2.555418 15.058181 1.545888 -1.815552 -4.070026 0.357336 -1.458528 2.932328 0.001241 -0.000795 1.000574 -8.873015 -16.097687 -3.434240 -0.710026 -1.322726 57.602623 4.369291 -13.950803 5.067618 2.039161 1.468056 -5.018781 -0.001972 -0.000226 1.002554
38.286129 110.546074 32.105083 24.318163 79.511361 21.587405 1.656890 0.578706 4.620769 2.461187 3.683916 -4.892114 -5.306224 5.085159 5.597679 1.363951 4.084028 3.977295 -20.285847 6.637888 -1.311899 -7.951653 54.158571 -20.786893 0.000355 -0.000444 -0.000760 -1.758120 -0.590358 -2.158448 0.038298 -4.876414 -2.692241 -0.437747 -3.152269 -2.667207 -4.224238 -4.085774 12.479304 -76.213343 -58.185142 1.319174 -177.193665 -47.735896 -173.858540 37.696909 -4.755019 -27.901702 -8.667695 7.627177 16.423380 -6.327524 -4.979404 -3.498300 -0.430560 5.473116 -6.076518 -0.000913 -0.000765 -0.000451 -1.063453 -0.156912 1.501198 -39.841231 8.433349 8.171700 -22.948367 1.099937 0.632904 -4.435618 -2.455530 2.988579 -0.001088 0.000004 -0.000007 -0.367162 -1.370666 3.133479 -40.654467 11.843146 1.790739 -23.843511 -0.376431 2.144449 -1.855235 -1.362053 1.583402 0.001354 -0.001043 0.000456 3.135756 -0.300900 -15.301935 -34.887495 19.040237 14.960839 -28.913209 2.291990 0.214267 -23.230926 0.396129 -5.688202 0.000158 -0.000841 -0.000918 3.297278 1.844929 -10.132249 -35.090303 12.820497 11.095604 -29.812526 -0.509807 1.736123 -14.305372 2.746201 -7.431259 -0.000909 0.000653 -0.000256 -23.437015 12.987218 19.562199 90.135664 43.915996 22.543433 166.605523 52.104920 163.422786 -42.433954 43.707558 -19.056344 22.386116 -23.438030 23.110086 -0.441325 0.247971 -10.048270 -2.452155 -7.670370 2.207280 -0.000571 0.000982 -0.000164 2.972502 -6.988316 3.465508 51.385064 -14.441959 9.103171 29.953102 2.815454 4.870210 6.354340 3.763490 -3.323603 -0.000138 -0.000304 0.000494 -0.720139 -5.246062 8.951007 55.992158 -7.492309 7.008711 37.063790 4.602007 4.067618 5.818660 3.276849 -0.379293 0.001101 0.000159 -0.000920 -6.268232 -4.493741 -6.552548 57.176477 -17.311131 14.952059 43.090936 3.092038 1.973113 28.662333 1.911003 -8.983753 0.001239 -0.000369 -0.001092 -8.050100 -6.288711 -0.796460 57.312458 -7.453480 13.298971 45.069874 8.844674 4.016473 23.342412 1.903597 -11.711462 -0.003460 0.001527 -0.001093 -7.562512 -5.844579 -0.448126 2.780004 -3.124908 14.483289 1.521231 -3.243869 -3.968959 0.773190 -2.077866 1.260720 0.001212 -0.000962 1.000751 -10.938839 -15.789525 -6.496865 -0.037535 -1.352758 55.964537 5.501639 -16.352725 1.868656 1.882019 2.022787 -4.056561 -0.001806 0.000178 1.001691
